<?xml version="1.0" encoding="UTF-8"?>
<svg width="32px" height="32px" viewBox="0 0 32 32" version="1.1" xmlns="http://www.w3.org/2000/svg" xmlns:xlink="http://www.w3.org/1999/xlink">
    <g stroke="none" stroke-width="1" fill="none" fill-rule="evenodd">
        <path d="M18,27 C24.0751322,27 29,22.0751322 29,16 C29,9.92486775 24.0751322,5 18,5 C11.9248678,5 7,9.92486775 7,16 C7,19.2908577 8.44511133,22.2441916 10.7353614,24.260029" stroke="#FFFFFF" stroke-width="4" stroke-linecap="round" transform="translate(18.000000, 16.000000) rotate(36.000000) translate(-18.000000, -16.000000) "></path>
        <path d="M8.60642315,15.5384037 L8.60642315,10.4321591 C8.60642315,9.32758958 9.50185365,8.43215908 10.6064232,8.43215908 C11.7109927,8.43215908 12.6064232,9.32758958 12.6064232,10.4321591 L12.6064232,17.4321591 C12.6064232,18.0114696 12.3601208,18.5332531 11.9665226,18.8985031 C11.6012726,19.2921013 11.0794891,19.5384037 10.5001786,19.5384037 L3.50017857,19.5384037 C2.39560907,19.5384037 1.50017857,18.6429732 1.50017857,17.5384037 C1.50017857,16.4338342 2.39560907,15.5384037 3.50017857,15.5384037 L8.60642315,15.5384037 Z" fill="#FFFFFF" transform="translate(7.053301, 13.985281) rotate(-315.000000) translate(-7.053301, -13.985281) "></path>
    </g>
</svg>
