<?xml version="1.0" encoding="UTF-8"?>
<svg width="32px" height="32px" viewBox="0 0 32 32" version="1.1" xmlns="http://www.w3.org/2000/svg" xmlns:xlink="http://www.w3.org/1999/xlink">
    <g stroke="none" stroke-width="1" fill="none" fill-rule="evenodd">
        <path d="M14,27 C20.0751322,27 25,22.0751322 25,16 C25,9.92486775 20.0751322,5 14,5 C7.92486775,5 3,9.92486775 3,16 C3,19.2908577 4.44511133,22.2441916 6.7353614,24.260029" stroke="#FFFFFF" stroke-width="4" stroke-linecap="round" transform="translate(14.000000, 16.000000) scale(-1, 1) rotate(36.000000) translate(-14.000000, -16.000000) "></path>
        <path d="M26.5064232,15.5384037 L26.5064232,10.4321591 C26.5064232,9.32758958 27.4018537,8.43215908 28.5064232,8.43215908 C29.6109927,8.43215908 30.5064232,9.32758958 30.5064232,10.4321591 L30.5064232,17.4321591 C30.5064232,18.0114696 30.2601208,18.5332531 29.8665226,18.8985031 C29.5012726,19.2921013 28.9794891,19.5384037 28.4001786,19.5384037 L21.4001786,19.5384037 C20.2956091,19.5384037 19.4001786,18.6429732 19.4001786,17.5384037 C19.4001786,16.4338342 20.2956091,15.5384037 21.4001786,15.5384037 L26.5064232,15.5384037 Z" fill="#FFFFFF" transform="translate(24.953301, 13.985281) rotate(-315.000000) translate(-24.953301, -13.985281) "></path>
    </g>
</svg>
